<svg xmlns="http://www.w3.org/2000/svg" viewBox="0 0 16 16" width="16" height="16"><g stroke="SaddleBrown" stroke-width=".975"><path d="M3.35.49a.65.65 0 0 0-.58.65.65.65 0 0 0 1.3 0 .65.65 0 0 0-.72-.65zm9.1 0a.65.65 0 0 0-.58.65.65.65 0 0 0 1.3 0 .65.65 0 0 0-.72-.65zM4.07 3.74s-3.9 3.9 0 7.8-3.25-3.9 0-7.8zm7.8 0c3.25 3.9-3.9 11.7 0 7.8s0-7.8 0-7.8zM4.72 14.79l-.65.65h7.8l-.65-.65h-6.5z"/><path fill="none" d="M4.72 3.09s3.25-3.9 6.5 0M4.07 1.14s1.3 1.3 0 2.6h7.8s-1.3-1.3 0-2.6m-7.8 14.3s1.95-1.95 1.3-2.6h5.2s-.65.65 1.3 2.6m-6.5-11.7v7.15h5.2V3.74m-2.6 0v7.15"/></g></svg>
