<svg xmlns="http://www.w3.org/2000/svg" viewBox="0 0 16 16" width="16" height="16"><path fill="SaddleBrown" d="M6.18 1.46v.8a5.45 5.45 0 0 0-2.32-.55c-1.4 0-2.8.53-3.86 1.59L2.31 5.6h1.54l-.1 1.44c.67.68 1.54 1 2.42 1h.01v2.13H4v2.73c0 .9.73 1.63 1.64 1.63h8.18c1.2 0 2.18-.98 2.18-2.18V1.46zm0 5.5c-.48 0-.92-.13-1.3-.39l.16-2.04H2.77L1.65 3.41a4.35 4.35 0 0 1 5.3.67l1.54 1.54-.66.66c-.45.43-1.04.68-1.66.68zm8.73 5.4a1.1 1.1 0 1 1-2.18 0v-2.18H7.27V7.86c.48-.17.94-.43 1.34-.8l.65-.66 2.7 2.7h.77v-.78L7.7 3.3c-.13-.14-.28-.24-.44-.36v-.4h7.64z"/></svg>
