<svg xmlns="http://www.w3.org/2000/svg" viewBox="0 0 32 32"><path fill="#0a0" d="M1.07 0C.47 0 0 .48 0 1.07v29.86C0 31.53.48 32 1.07 32h29.86c.6 0 1.07-.48 1.07-1.07V1.07C32 .47 31.52 0 30.93 0zm2.3 2.3h25.25c.6 0 1.08.48 1.08 1.07v25.25c0 .6-.48 1.07-1.08 1.07H3.38c-.6 0-1.08-.47-1.08-1.07V3.37c0-.59.48-1.07 1.08-1.07zm1.8 1.79c-.6 0-1.08.48-1.08 1.07v21.68c0 .6.48 1.07 1.07 1.07h21.68c.6 0 1.07-.48 1.07-1.07V5.16c0-.6-.48-1.07-1.07-1.07zm19.8 1.61c.4 0 .68.04.82.12.14.07.2.17.2.28 0 .17-.2.52-.62 1.04-4.85 5.83-9.35 11.99-13.5 18.48-.29.45-.88.67-1.77.67-.9 0-1.44-.03-1.6-.1-.43-.2-.94-1.16-1.51-2.9-.66-1.92-.98-3.12-.98-3.61 0-.53.44-1.04 1.32-1.53.54-.3 1.01-.45 1.43-.45.49 0 .86.4 1.11 1.2.5 1.51.86 2.27 1.08 2.27.16 0 .33-.13.5-.38a113.9 113.9 0 0 1 9.81-13.73c.78-.9 2.02-1.36 3.72-1.36z"/></svg>
